# Blender v2.80 (sub 74) OBJ File: ''
# www.blender.org
v -0.659603 -0.178338 2.631089
v 0.659603 -0.178338 2.631089
v -0.659603 -0.178338 -1.063017
v 0.659603 -0.178338 -1.063017
v -1.303229 -0.178338 -1.063017
v 1.303229 -0.178338 -1.063017
v 0.000000 -0.178338 -2.984686
v -0.659603 0.178338 2.631089
v 0.659603 0.178338 2.631089
v -0.659603 0.178338 -1.063017
v 0.659603 0.178338 -1.063017
v -1.303229 0.178338 -1.063017
v 1.303229 0.178338 -1.063017
v 0.000000 0.178338 -2.984686
vt 0.000000 1.000000
vt 1.000000 0.000000
vt 0.000000 0.000000
vt 1.000000 1.000000
vt 1.000000 1.000000
vt 0.000000 1.000000
vt 0.000000 1.000000
vt 1.000000 0.000000
vt 0.000000 1.000000
vt 0.000000 0.000000
vt 1.000000 1.000000
vt 0.000000 1.000000
vt 0.000000 1.000000
vt 1.000000 1.000000
vn 0.0000 -1.0000 0.0000
vn 0.0000 0.0000 -1.0000
vn 0.0000 1.0000 0.0000
vn 0.0000 0.0000 1.0000
vn -0.8276 0.0000 -0.5613
vn 0.8276 0.0000 -0.5613
vn 1.0000 0.0000 0.0000
vn -1.0000 0.0000 0.0000
s off
f 3/1/1 2/2/1 1/3/1
f 3/1/2 6/4/2 4/5/2
f 5/6/1 7/7/1 6/4/1
f 9/8/3 10/9/3 8/10/3
f 10/9/4 13/11/4 12/12/4
f 12/12/3 13/11/3 14/13/3
f 5/6/5 14/13/5 7/7/5
f 6/4/4 11/14/4 4/5/4
f 2/2/4 8/10/4 1/3/4
f 7/7/6 13/11/6 6/4/6
f 3/1/4 12/12/4 5/6/4
f 4/5/7 9/8/7 2/2/7
f 1/3/8 10/9/8 3/1/8
f 3/1/1 4/5/1 2/2/1
f 3/1/4 5/6/4 6/4/4
f 9/8/3 11/14/3 10/9/3
f 10/9/2 11/14/2 13/11/2
f 5/6/5 12/12/5 14/13/5
f 6/4/4 13/11/4 11/14/4
f 2/2/4 9/8/4 8/10/4
f 7/7/6 14/13/6 13/11/6
f 3/1/4 10/9/4 12/12/4
f 4/5/7 11/14/7 9/8/7
f 1/3/8 8/10/8 10/9/8
