# Blender v2.80 (sub 74) OBJ File: ''
# www.blender.org
v 0.050000 0.000000 0.950000
v 0.050000 0.050000 1.000000
v 0.000000 0.050000 0.950000
v 0.050000 0.950000 1.000000
v 0.050000 1.000000 0.950000
v 0.000000 0.950000 0.950000
v 0.050000 0.000000 0.050000
v 0.000000 0.050000 0.050000
v 0.050000 0.050000 0.000000
v 0.050000 1.000000 0.050000
v 0.050000 0.950000 0.000000
v 0.000000 0.950000 0.050000
v 0.950000 0.000000 0.950000
v 1.000000 0.050000 0.950000
v 0.950000 0.050000 1.000000
v 0.950000 1.000000 0.950000
v 0.950000 0.950000 1.000000
v 1.000000 0.950000 0.950000
v 0.950000 0.000000 0.050000
v 0.950000 0.050000 0.000000
v 1.000000 0.050000 0.050000
v 0.950000 1.000000 0.050000
v 1.000000 0.950000 0.050000
v 0.950000 0.950000 0.000000
vt 0.612500 0.762500
vt 0.387500 0.987500
vt 0.387500 0.762500
vt 0.612500 0.512500
vt 0.387500 0.737500
vt 0.387500 0.512500
vt 0.862500 0.512500
vt 0.637500 0.737500
vt 0.637500 0.512500
vt 0.612500 0.012500
vt 0.387500 0.237500
vt 0.387500 0.012500
vt 0.612500 0.262500
vt 0.387500 0.487500
vt 0.387500 0.262500
vt 0.137500 0.737500
vt 0.137500 0.750000
vt 0.125000 0.737500
vt 0.612500 0.987500
vt 0.625000 0.987500
vt 0.612500 1.000000
vt 0.137500 0.512500
vt 0.125000 0.512500
vt 0.137500 0.500000
vt 0.862500 0.500000
vt 0.875000 0.512500
vt 0.362500 0.737500
vt 0.375000 0.737500
vt 0.362500 0.750000
vt 0.637500 0.750000
vt 0.625000 0.737500
vt 0.362500 0.512500
vt 0.362500 0.500000
vt 0.375000 0.512500
vt 0.625000 0.512500
vt 0.637500 0.500000
vt 0.387500 1.000000
vt 0.875000 0.737500
vt 0.862500 0.737500
vt 0.612500 0.237500
vt 0.612500 0.487500
vt 0.612500 0.737500
vt 0.862500 0.750000
vn 0.0000 0.0000 1.0000
vn 1.0000 0.0000 0.0000
vn 0.0000 1.0000 0.0000
vn -1.0000 0.0000 0.0000
vn 0.0000 0.0000 -1.0000
vn -0.5774 -0.5773 0.5773
vn -0.5774 0.5773 0.5774
vn -0.5774 -0.5774 -0.5774
vn -0.5773 0.5773 -0.5774
vn 0.5774 -0.5774 0.5773
vn 0.5774 0.5774 0.5774
vn 0.5773 -0.5774 -0.5773
vn 0.5773 0.5774 -0.5774
vn -0.7071 -0.7071 0.0000
vn -0.7071 0.0000 0.7071
vn -0.7071 0.7071 0.0000
vn -0.7071 0.0000 -0.7071
vn 0.0000 -0.7071 -0.7071
vn 0.0000 0.7071 -0.7071
vn 0.7071 0.0000 -0.7071
vn 0.7071 -0.7071 0.0000
vn 0.7071 0.7071 0.0000
vn 0.7071 0.0000 0.7071
vn 0.0000 -0.7071 0.7071
vn 0.0000 0.7071 0.7071
vn 0.0000 -1.0000 0.0000
s off
f 17/1/1 2/2/1 15/3/1
f 23/4/2 14/5/2 21/6/2
f 10/7/3 16/8/3 22/9/3
f 6/10/4 8/11/4 3/12/4
f 11/13/5 20/14/5 9/15/5
f 1/16/6 2/17/6 3/18/6
f 4/19/7 5/20/7 6/21/7
f 7/22/8 8/23/8 9/24/8
f 10/7/9 11/25/9 12/26/9
f 13/27/10 14/28/10 15/29/10
f 16/8/11 17/30/11 18/31/11
f 19/32/12 20/33/12 21/34/12
f 22/9/13 23/35/13 24/36/13
f 1/16/14 8/23/14 7/22/14
f 4/19/15 3/37/15 2/2/15
f 10/7/16 6/38/16 5/39/16
f 9/15/17 12/40/17 11/13/17
f 7/22/18 20/33/18 19/32/18
f 22/9/19 11/25/19 10/7/19
f 21/6/20 24/41/20 23/4/20
f 19/32/21 14/5/21 13/27/21
f 16/8/22 23/4/22 22/9/22
f 15/3/23 18/42/23 17/1/23
f 13/27/24 2/17/24 1/16/24
f 5/39/25 17/30/25 16/8/25
f 19/32/26 1/16/26 7/22/26
f 17/1/1 4/19/1 2/2/1
f 23/4/2 18/42/2 14/5/2
f 10/7/3 5/39/3 16/8/3
f 6/10/4 12/40/4 8/11/4
f 11/13/5 24/41/5 20/14/5
f 1/16/14 3/18/14 8/23/14
f 4/19/15 6/21/15 3/37/15
f 10/7/16 12/26/16 6/38/16
f 9/15/17 8/11/17 12/40/17
f 7/22/18 9/24/18 20/33/18
f 22/9/19 24/36/19 11/25/19
f 21/6/20 20/14/20 24/41/20
f 19/32/21 21/6/21 14/5/21
f 16/8/22 18/42/22 23/4/22
f 15/3/23 14/5/23 18/42/23
f 13/27/24 15/29/24 2/17/24
f 5/39/25 4/43/25 17/30/25
f 19/32/26 13/27/26 1/16/26
