# Blender v2.80 (sub 74) OBJ File: ''
# www.blender.org
v 2.950000 3.033012 -1.075974
v 3.000000 2.983012 -1.075974
v 2.950000 2.983012 -1.125974
v 1.050000 1.033012 -1.075975
v 1.000000 0.983012 -1.075975
v 0.950000 1.083012 -1.125975
v -0.950000 1.083012 -1.125975
v -1.000000 0.983012 -1.075975
v -1.050000 1.033012 -1.075975
v -1.000000 0.983012 1.075975
v -0.950000 1.083012 1.125975
v -1.050000 1.033012 1.075975
v 1.000000 0.983012 1.075975
v 1.050000 1.033012 1.075975
v 0.950000 1.083012 1.125975
v 3.000000 2.983012 1.075976
v 2.950000 3.033012 1.075976
v 2.950000 2.983012 1.125975
v -0.950000 -5.099034 1.075973
v -0.950000 -5.049034 1.125973
v -1.000000 -5.049034 1.075973
v -0.950000 -5.099034 -1.075976
v -1.000000 -5.049034 -1.075976
v -0.950000 -5.049034 -1.125976
v -2.950000 1.083012 -1.125975
v -2.950000 1.033012 -1.075975
v -3.000000 1.083012 -1.075975
v 2.950000 1.083012 -1.125975
v 3.000000 1.083012 -1.075975
v 2.950000 1.033012 -1.075975
v -2.950000 1.033012 1.075975
v -2.950000 1.083012 1.125975
v -3.000000 1.083012 1.075975
v -2.950000 2.983012 -1.125974
v -3.000000 2.983012 -1.075974
v -2.950000 3.033012 -1.075974
v 0.950000 -5.049034 -1.125976
v 1.000000 -5.049034 -1.075976
v 0.950000 -5.099034 -1.075976
v 1.000000 -5.049034 1.075973
v 0.950000 -5.049034 1.125973
v 0.950000 -5.099034 1.075973
v -3.000000 2.983012 1.075976
v -2.950000 2.983012 1.125975
v -2.950000 3.033012 1.075976
v 3.000000 1.083012 1.075975
v 2.950000 1.083012 1.125975
v 2.950000 1.033012 1.075975
vt 0.000000 0.000000
vt 0.000000 0.000000
vt 0.000000 0.000000
vt 0.000000 0.000000
vt 0.000000 0.000000
vt 0.000000 0.000000
vt 0.000000 0.000000
vt 0.000000 0.000000
vt 0.000000 0.000000
vt 0.000000 0.000000
vt 0.000000 0.000000
vt 0.000000 0.000000
vt 0.000000 0.000000
vt 0.000000 0.000000
vt 0.000000 0.000000
vt 0.000000 0.000000
vt 0.000000 0.000000
vt 0.000000 0.000000
vt 0.000000 0.000000
vt 0.000000 0.000000
vt 0.000000 0.000000
vt 0.000000 0.000000
vt 0.000000 0.000000
vt 0.000000 0.000000
vt 0.000000 0.000000
vt 0.000000 0.000000
vt 0.000000 0.000000
vt 0.000000 0.000000
vt 0.000000 0.000000
vt 0.000000 0.000000
vt 0.000000 0.000000
vt 0.000000 0.000000
vt 0.000000 0.000000
vt 0.000000 0.000000
vt 0.000000 0.000000
vt 0.000000 0.000000
vt 0.000000 0.000000
vt 0.000000 0.000000
vt 0.000000 0.000000
vt 0.000000 0.000000
vt 0.000000 0.000000
vt 0.000000 0.000000
vt 0.000000 0.000000
vt 0.000000 0.000000
vt 0.000000 0.000000
vt 0.000000 0.000000
vt 0.000000 0.000000
vt 0.000000 0.000000
vn -1.0000 0.0000 0.0000
vn 0.0000 -1.0000 -0.0000
vn 0.0000 1.0000 0.0000
vn 0.0000 0.0000 -1.0000
vn 1.0000 0.0000 0.0000
vn 0.0000 -0.0000 1.0000
vn 0.4606 0.7588 -0.4606
vn 0.7588 0.4606 -0.4606
vn 0.4606 0.4606 -0.7588
vn 0.3214 -0.7051 -0.6321
vn 0.7051 -0.3214 -0.6321
vn 0.3717 -0.3717 -0.8507
vn -0.3717 -0.3717 -0.8507
vn -0.7051 -0.3214 -0.6321
vn -0.3214 -0.7051 -0.6321
vn -0.7051 -0.3214 0.6321
vn -0.3717 -0.3717 0.8507
vn -0.3214 -0.7051 0.6321
vn 0.7051 -0.3214 0.6321
vn 0.3214 -0.7051 0.6321
vn 0.3717 -0.3717 0.8507
vn 0.7588 0.4606 0.4606
vn 0.4606 0.7588 0.4606
vn 0.4606 0.4606 0.7588
vn -0.4606 -0.7588 0.4606
vn -0.4606 -0.4606 0.7588
vn -0.7588 -0.4606 0.4606
vn -0.4606 -0.7588 -0.4606
vn -0.7588 -0.4606 -0.4606
vn -0.4606 -0.4606 -0.7588
vn 0.4606 -0.4606 -0.7588
vn 0.7588 -0.4606 -0.4606
vn 0.4606 -0.7588 -0.4606
vn -0.4606 0.4606 -0.7588
vn -0.7588 0.4606 -0.4606
vn -0.4606 0.7588 -0.4606
vn 0.7588 -0.4606 0.4606
vn 0.4606 -0.4606 0.7588
vn 0.4606 -0.7588 0.4606
vn -0.7588 0.4606 0.4606
vn -0.4606 0.4606 0.7588
vn -0.4606 0.7588 0.4606
s 1
f 10/1/1 23/2/1 21/3/1
f 31/4/2 9/5/2 12/6/2
f 14/7/2 30/8/2 48/9/2
f 19/10/2 39/11/2 42/12/2
f 17/13/3 36/14/3 45/15/3
f 3/16/4 6/17/4 7/18/4
f 43/19/1 27/20/1 33/21/1
f 40/22/5 5/23/5 13/24/5
f 15/25/6 18/26/6 11/27/6
f 1/28/7 2/29/8 3/16/9
f 4/30/10 5/23/11 6/17/12
f 7/18/13 8/31/14 9/5/15
f 10/1/16 11/27/17 12/6/18
f 13/24/19 14/7/20 15/25/21
f 16/32/22 17/13/23 18/26/24
f 19/10/25 20/33/26 21/3/27
f 22/34/28 23/2/29 24/35/30
f 25/36/30 26/37/28 27/20/29
f 28/38/31 29/39/32 30/8/33
f 31/4/25 32/40/26 33/21/27
f 34/41/34 35/42/35 36/14/36
f 37/43/31 38/44/32 39/11/33
f 40/22/37 41/45/38 42/12/39
f 43/19/40 44/46/41 45/15/42
f 46/47/37 47/48/38 48/9/39
f 23/2/29 19/10/25 21/3/27
f 24/35/30 8/31/14 7/18/13
f 10/1/16 9/5/15 8/31/14
f 9/5/15 25/36/30 7/18/13
f 17/13/23 2/29/8 1/28/7
f 2/29/8 28/38/31 3/16/9
f 31/4/25 27/20/29 26/37/28
f 35/42/35 25/36/30 27/20/29
f 14/7/20 5/23/11 4/30/10
f 5/23/11 37/43/31 6/17/12
f 40/22/37 39/11/33 38/44/32
f 37/43/31 22/34/28 24/35/30
f 43/19/40 36/14/36 35/42/35
f 34/41/34 1/28/7 3/16/9
f 46/47/37 30/8/33 29/39/32
f 28/38/31 4/30/10 6/17/12
f 45/15/42 18/26/24 17/13/23
f 44/46/41 33/21/27 32/40/26
f 32/40/26 12/6/18 11/27/17
f 10/1/16 20/33/26 11/27/17
f 42/12/39 20/33/26 19/10/25
f 14/7/20 47/48/38 15/25/21
f 47/48/38 16/32/22 18/26/24
f 41/45/38 13/24/19 15/25/21
f 46/47/5 2/29/5 16/32/5
f 10/1/1 8/31/1 23/2/1
f 31/4/2 26/37/2 9/5/2
f 14/7/2 4/30/2 30/8/2
f 19/10/2 22/34/2 39/11/2
f 17/13/3 1/28/3 36/14/3
f 25/36/4 34/41/4 7/18/4
f 34/41/4 3/16/4 7/18/4
f 3/16/4 28/38/4 6/17/4
f 6/17/4 37/43/4 24/35/4
f 6/17/4 24/35/4 7/18/4
f 43/19/1 35/42/1 27/20/1
f 40/22/5 38/44/5 5/23/5
f 15/25/6 47/48/6 18/26/6
f 18/26/6 44/46/6 11/27/6
f 44/46/6 32/40/6 11/27/6
f 11/27/6 20/33/6 41/45/6
f 11/27/6 41/45/6 15/25/6
f 23/2/29 22/34/28 19/10/25
f 24/35/30 23/2/29 8/31/14
f 10/1/16 12/6/18 9/5/15
f 9/5/15 26/37/28 25/36/30
f 17/13/23 16/32/22 2/29/8
f 2/29/8 29/39/32 28/38/31
f 31/4/25 33/21/27 27/20/29
f 35/42/35 34/41/34 25/36/30
f 14/7/20 13/24/19 5/23/11
f 5/23/11 38/44/32 37/43/31
f 40/22/37 42/12/39 39/11/33
f 37/43/31 39/11/33 22/34/28
f 43/19/40 45/15/42 36/14/36
f 34/41/34 36/14/36 1/28/7
f 46/47/37 48/9/39 30/8/33
f 28/38/31 30/8/33 4/30/10
f 45/15/42 44/46/41 18/26/24
f 44/46/41 43/19/40 33/21/27
f 32/40/26 31/4/25 12/6/18
f 10/1/16 21/3/27 20/33/26
f 42/12/39 41/45/38 20/33/26
f 14/7/20 48/9/39 47/48/38
f 47/48/38 46/47/37 16/32/22
f 41/45/38 40/22/37 13/24/19
f 46/47/5 29/39/5 2/29/5
