# Blender v2.80 (sub 74) OBJ File: ''
# www.blender.org
v -2.386466 -3.318635 -1.047833
v -2.436466 -3.268635 -1.047832
v -2.386466 -3.268635 -1.097832
v -1.075880 -0.354623 -1.097832
v -0.975880 -0.404623 -1.047832
v -1.025880 -0.454623 -1.047832
v -1.075880 -1.958049 -1.097832
v -1.025880 -1.858049 -1.047832
v -0.975880 -1.908049 -1.047832
v -0.975880 -1.908049 1.047832
v -1.025880 -1.858049 1.047832
v -1.075880 -1.958049 1.097832
v -2.376851 0.955963 1.097832
v -2.386466 1.005963 1.047832
v -2.436466 0.955963 1.047832
v -2.436466 -3.268635 1.047832
v -2.386466 -3.318635 1.047831
v -2.376466 -3.288635 1.097831
v 0.384706 -0.454623 -1.047832
v 0.334706 -0.404623 -1.047832
v 0.434706 -0.354623 -1.097832
v 0.334707 1.005963 -1.047832
v 0.384707 1.055963 -1.047832
v 0.434707 0.955963 -1.097832
v 0.384706 -0.454623 1.047832
v 0.434706 -0.354623 1.097832
v 0.334706 -0.404623 1.047832
v -0.975880 -0.404623 1.047832
v -1.075880 -0.354623 1.097832
v -1.025880 -0.454623 1.047832
v 0.384707 4.072364 1.047833
v 0.434707 4.072364 1.097833
v 0.434707 4.122364 1.047833
v 1.745292 4.072364 -1.097831
v 1.745292 4.122364 -1.047831
v 1.795292 4.072364 -1.047831
v 0.384707 4.072364 -1.047831
v 0.434707 4.122364 -1.047831
v 0.434707 4.072364 -1.097831
v -2.386466 0.955963 -1.097832
v -2.436466 0.955963 -1.047832
v -2.386466 1.005963 -1.047832
v 0.334706 -1.908049 -1.047832
v 0.384706 -1.858049 -1.047832
v 0.434706 -1.958049 -1.097832
v 0.384706 -1.858049 1.047832
v 0.334706 -1.908049 1.047832
v 0.434706 -1.958049 1.097832
v 0.334707 1.005963 1.047832
v 0.434707 0.955963 1.097832
v 0.384707 1.055963 1.047832
v 1.795292 -3.268635 1.047832
v 1.745292 -3.287866 1.097831
v 1.745292 -3.318635 1.047831
v 1.795292 -3.268635 -1.047832
v 1.745292 -3.318635 -1.047833
v 1.745292 -3.268635 -1.097832
v 1.795292 4.072364 1.047833
v 1.745292 4.122364 1.047833
v 1.745292 4.072364 1.097833
vt 0.000000 0.000000
vt 0.000000 0.000000
vt 0.000000 0.000000
vt 0.000000 0.000000
vt 0.000000 0.000000
vt 0.000000 0.000000
vt 0.000000 0.000000
vt 0.000000 0.000000
vt 0.000000 0.000000
vt 0.000000 0.000000
vt 0.000000 0.000000
vt 0.000000 0.000000
vt 0.000000 0.000000
vt 0.000000 0.000000
vt 0.000000 0.000000
vt 0.000000 0.000000
vt 0.000000 0.000000
vt 0.000000 0.000000
vt 0.000000 0.000000
vt 0.000000 0.000000
vt 0.000000 0.000000
vt 0.000000 0.000000
vt 0.000000 0.000000
vt 0.000000 0.000000
vt 0.000000 0.000000
vt 0.000000 0.000000
vt 0.000000 0.000000
vt 0.000000 0.000000
vt 0.000000 0.000000
vt 0.000000 0.000000
vt 0.000000 0.000000
vt 0.000000 0.000000
vt 0.000000 0.000000
vt 0.000000 0.000000
vt 0.000000 0.000000
vt 0.000000 0.000000
vt 0.000000 0.000000
vt 0.000000 0.000000
vt 0.000000 0.000000
vt 0.000000 0.000000
vt 0.000000 0.000000
vt 0.000000 0.000000
vt 0.000000 0.000000
vt 0.000000 0.000000
vt 0.000000 0.000000
vt 0.000000 0.000000
vt 0.000000 0.000000
vt 0.000000 0.000000
vt 0.000000 0.000000
vt 0.000000 0.000000
vt 0.000000 0.000000
vt 0.000000 0.000000
vt 0.000000 0.000000
vt 0.000000 0.000000
vt 0.000000 0.000000
vt 0.000000 0.000000
vt 0.000000 0.000000
vt 0.000000 0.000000
vt 0.000000 0.000000
vt 0.000000 0.000000
vn 0.0000 0.0000 -1.0000
vn -1.0000 0.0000 0.0000
vn 0.0000 1.0000 0.0000
vn 0.0000 -0.0000 1.0000
vn 1.0000 0.0000 0.0000
vn 0.0000 -1.0000 -0.0000
vn -0.4606 -0.7588 -0.4606
vn -0.7588 -0.4606 -0.4606
vn -0.4606 -0.4606 -0.7588
vn 0.3717 -0.3717 -0.8507
vn 0.3214 -0.7051 -0.6321
vn 0.7051 -0.3214 -0.6321
vn 0.3717 0.3717 -0.8507
vn 0.7051 0.3214 -0.6321
vn 0.3214 0.7051 -0.6321
vn 0.3214 0.7051 0.6321
vn 0.7051 0.3214 0.6321
vn 0.3717 0.3717 0.8507
vn -0.4025 0.4539 0.7949
vn -0.4694 0.7436 0.4761
vn -0.7318 0.4541 0.5082
vn -0.7552 -0.4367 0.4888
vn -0.4914 -0.7974 0.3504
vn -0.4168 -0.6001 0.6827
vn -0.7051 -0.3214 -0.6321
vn -0.3214 -0.7051 -0.6321
vn -0.3717 -0.3717 -0.8507
vn -0.3214 0.7051 -0.6321
vn -0.7051 0.3214 -0.6321
vn -0.3717 0.3717 -0.8507
vn -0.7051 -0.3214 0.6321
vn -0.3717 -0.3717 0.8507
vn -0.3214 -0.7051 0.6321
vn 0.3214 -0.7051 0.6321
vn 0.3717 -0.3717 0.8507
vn 0.7051 -0.3214 0.6321
vn -0.7588 0.4606 0.4606
vn -0.4606 0.4606 0.7588
vn -0.4606 0.7588 0.4606
vn 0.4606 0.4606 -0.7588
vn 0.4606 0.7588 -0.4606
vn 0.7588 0.4606 -0.4606
vn -0.7588 0.4606 -0.4606
vn -0.4606 0.7588 -0.4606
vn -0.4606 0.4606 -0.7588
vn -0.7051 0.3214 0.6321
vn -0.3214 0.7051 0.6321
vn -0.3717 0.3717 0.8507
vn 0.7857 -0.4403 0.4345
vn 0.4799 -0.6009 0.6392
vn 0.4767 -0.8153 0.3287
vn 0.7588 -0.4606 -0.4606
vn 0.4606 -0.7588 -0.4606
vn 0.4606 -0.4606 -0.7588
vn 0.7588 0.4606 0.4606
vn 0.4606 0.7588 0.4606
vn 0.4606 0.4606 0.7588
s 1
f 4/1/1 7/2/1 3/3/1
f 31/4/2 23/5/2 51/6/2
f 15/7/2 2/8/2 16/9/2
f 57/10/1 21/11/1 24/12/1
f 49/13/3 42/14/3 14/15/3
f 47/16/3 9/17/3 10/18/3
f 59/19/3 38/20/3 33/21/3
f 12/22/4 29/23/4 13/24/4
f 25/25/2 44/26/2 46/27/2
f 52/28/5 36/29/5 58/30/5
f 11/31/5 6/32/5 30/33/5
f 26/34/4 48/35/4 53/36/4
f 28/37/6 20/38/6 27/39/6
f 1/40/7 2/8/8 3/3/9
f 4/1/10 5/41/11 6/32/12
f 7/2/13 8/42/14 9/17/15
f 10/18/16 11/31/17 12/22/18
f 13/24/19 14/15/20 15/7/21
f 16/9/22 17/43/23 18/44/24
f 19/45/25 20/38/26 21/11/27
f 22/46/28 23/5/29 24/12/30
f 25/25/31 26/34/32 27/39/33
f 28/37/34 29/23/35 30/33/36
f 31/4/37 32/47/38 33/21/39
f 34/48/40 35/49/41 36/29/42
f 37/50/43 38/20/44 39/51/45
f 40/52/45 41/53/43 42/14/44
f 43/54/28 44/26/29 45/55/30
f 46/27/46 47/16/47 48/35/48
f 49/13/47 50/56/48 51/6/46
f 52/28/49 53/36/50 54/57/51
f 55/58/52 56/59/53 57/10/54
f 58/30/55 59/19/56 60/60/57
f 8/42/14 4/1/10 6/32/12
f 16/9/22 13/24/19 15/7/21
f 25/25/31 20/38/26 19/45/25
f 21/11/27 5/41/11 4/1/10
f 28/37/34 6/32/12 5/41/11
f 38/20/44 31/4/37 33/21/39
f 39/51/45 35/49/41 34/48/40
f 17/43/23 2/8/8 1/40/7
f 41/53/43 3/3/9 2/8/8
f 11/31/17 9/17/15 8/42/14
f 43/54/28 7/2/13 9/17/15
f 47/16/47 44/26/29 43/54/28
f 45/55/30 19/45/25 21/11/27
f 49/13/47 23/5/29 22/46/28
f 23/5/29 39/51/45 24/12/30
f 56/59/53 52/28/49 54/57/51
f 57/10/54 1/40/7 3/3/9
f 59/19/56 36/29/42 35/49/41
f 34/48/40 55/58/52 57/10/54
f 42/14/44 15/7/21 14/15/20
f 40/52/45 22/46/28 24/12/30
f 54/57/51 18/44/24 17/43/23
f 30/33/36 12/22/18 11/31/17
f 48/35/48 10/18/16 12/22/18
f 29/23/35 27/39/33 26/34/32
f 60/60/57 33/21/39 32/47/38
f 46/27/46 26/34/32 25/25/31
f 51/6/46 32/47/38 31/4/37
f 52/28/49 60/60/57 53/36/50
f 13/24/19 49/13/47 14/15/20
f 17/43/6 56/59/6 54/57/6
f 7/2/1 45/55/1 57/10/1
f 40/52/1 24/12/1 4/1/1
f 7/2/1 57/10/1 3/3/1
f 40/52/1 4/1/1 3/3/1
f 31/4/2 37/50/2 23/5/2
f 15/7/2 41/53/2 2/8/2
f 39/51/1 34/48/1 24/12/1
f 34/48/1 57/10/1 24/12/1
f 57/10/1 45/55/1 21/11/1
f 21/11/1 4/1/1 24/12/1
f 49/13/3 22/46/3 42/14/3
f 47/16/3 43/54/3 9/17/3
f 59/19/3 35/49/3 38/20/3
f 18/44/4 48/35/4 12/22/4
f 29/23/4 50/56/4 13/24/4
f 18/44/4 12/22/4 13/24/4
f 25/25/2 19/45/2 44/26/2
f 52/28/5 55/58/5 36/29/5
f 11/31/5 8/42/5 6/32/5
f 53/36/4 60/60/4 50/56/4
f 60/60/4 32/47/4 50/56/4
f 50/56/4 29/23/4 26/34/4
f 48/35/4 18/44/4 53/36/4
f 50/56/4 26/34/4 53/36/4
f 28/37/6 5/41/6 20/38/6
f 8/42/14 7/2/13 4/1/10
f 16/9/22 18/44/24 13/24/19
f 25/25/31 27/39/33 20/38/26
f 21/11/27 20/38/26 5/41/11
f 28/37/34 30/33/36 6/32/12
f 38/20/44 37/50/43 31/4/37
f 39/51/45 38/20/44 35/49/41
f 17/43/23 16/9/22 2/8/8
f 41/53/43 40/52/45 3/3/9
f 11/31/17 10/18/16 9/17/15
f 43/54/28 45/55/30 7/2/13
f 47/16/47 46/27/46 44/26/29
f 45/55/30 44/26/29 19/45/25
f 49/13/47 51/6/46 23/5/29
f 23/5/29 37/50/43 39/51/45
f 56/59/53 55/58/52 52/28/49
f 57/10/54 56/59/53 1/40/7
f 59/19/56 58/30/55 36/29/42
f 34/48/40 36/29/42 55/58/52
f 42/14/44 41/53/43 15/7/21
f 40/52/45 42/14/44 22/46/28
f 54/57/51 53/36/50 18/44/24
f 30/33/36 29/23/35 12/22/18
f 48/35/48 47/16/47 10/18/16
f 29/23/35 28/37/34 27/39/33
f 60/60/57 59/19/56 33/21/39
f 46/27/46 48/35/48 26/34/32
f 51/6/46 50/56/48 32/47/38
f 52/28/49 58/30/55 60/60/57
f 13/24/19 50/56/48 49/13/47
f 17/43/6 1/40/6 56/59/6
