# Blender v2.80 (sub 74) OBJ File: ''
# www.blender.org
v -0.956805 0.115950 -1.157281
v -0.906805 0.215950 -1.107281
v -0.856805 0.165950 -1.107281
v -0.856805 -0.539343 -1.107281
v -0.906805 -0.589343 -1.107281
v -0.956805 -0.489343 -1.157281
v -2.283452 -2.605222 -1.157282
v -2.267391 -2.655222 -1.107282
v -2.317391 -2.605222 -1.107282
v -2.317391 -2.605222 1.107281
v -2.267391 -2.655222 1.107281
v -2.267391 -2.605222 1.157281
v -0.856805 -0.539343 1.107281
v -0.906805 -0.489343 1.157281
v -0.906805 -0.589343 1.107281
v -0.856805 0.165950 1.107281
v -0.906805 0.215950 1.107281
v -0.906805 0.115950 1.157281
v 0.503781 1.070178 -1.107281
v 0.453781 1.120178 -1.107281
v 0.558111 1.164920 -1.157281
v 1.914368 2.231829 -1.107281
v 1.854784 2.232760 -1.157281
v 1.864368 2.281829 -1.107281
v 1.914368 -0.489343 -1.107281
v 1.864368 -0.539343 -1.107281
v 1.855152 -0.489343 -1.157281
v 1.864368 -0.489343 1.157281
v 1.864368 -0.539343 1.107281
v 1.914368 -0.489343 1.107281
v 1.864368 2.231829 1.157281
v 1.914368 2.231829 1.107281
v 1.864368 2.281829 1.107281
v 0.503781 1.070178 1.107281
v 0.553781 1.170178 1.157281
v 0.453781 1.120178 1.107281
v 0.503781 0.215950 -1.107281
v 0.557945 0.115950 -1.157281
v 0.453781 0.165950 -1.107281
v 1.914368 -1.294636 -1.107281
v 1.864368 -1.294636 -1.157281
v 1.864368 -1.244636 -1.107281
v 1.914368 -2.605222 1.107281
v 1.864368 -2.605222 1.157281
v 1.864368 -2.655222 1.107281
v 1.864368 -2.605222 -1.157282
v 1.914368 -2.605222 -1.107282
v 1.864368 -2.655222 -1.107282
v -0.856805 1.120178 1.107281
v -0.956805 1.170178 1.157281
v -0.906805 1.070178 1.107281
v -0.956805 1.165123 -1.157281
v -0.856805 1.120178 -1.107281
v -0.906805 1.070178 -1.107281
v 0.503781 0.215950 1.107281
v 0.453781 0.165950 1.107281
v 0.553781 0.115950 1.157281
v -0.856805 -1.244636 -1.107281
v -0.956805 -1.294636 -1.157281
v -0.906805 -1.194636 -1.107281
v 1.864368 -1.244636 1.107281
v 1.864368 -1.294636 1.157281
v 1.914368 -1.294636 1.107281
v -2.284094 2.231884 -1.157281
v -2.317391 2.231829 -1.107281
v -2.267391 2.281829 -1.107281
v -0.846090 2.231829 1.157281
v -0.906805 2.281829 1.107281
v -0.906805 -1.194636 1.107281
v -0.956805 -1.294636 1.157281
v -0.856805 -1.244636 1.107281
v -2.317391 2.231829 1.107281
v -2.267391 2.231829 1.157281
v -2.267391 2.281829 1.107281
vt 0.000000 0.000000
vt 0.000000 0.000000
vt 0.000000 0.000000
vt 0.000000 0.000000
vt 0.000000 0.000000
vt 0.000000 0.000000
vt 0.000000 0.000000
vt 0.000000 0.000000
vt 0.000000 0.000000
vt 0.000000 0.000000
vt 0.000000 0.000000
vt 0.000000 0.000000
vt 0.000000 0.000000
vt 0.000000 0.000000
vt 0.000000 0.000000
vt 0.000000 0.000000
vt 0.000000 0.000000
vt 0.000000 0.000000
vt 0.000000 0.000000
vt 0.000000 0.000000
vt 0.000000 0.000000
vt 0.000000 0.000000
vt 0.000000 0.000000
vt 0.000000 0.000000
vt 0.000000 0.000000
vt 0.000000 0.000000
vt 0.000000 0.000000
vt 0.000000 0.000000
vt 0.000000 0.000000
vt 0.000000 0.000000
vt 0.000000 0.000000
vt 0.000000 0.000000
vt 0.000000 0.000000
vt 0.000000 0.000000
vt 0.000000 0.000000
vt 0.000000 0.000000
vt 0.000000 0.000000
vt 0.000000 0.000000
vt 0.000000 0.000000
vt 0.000000 0.000000
vt 0.000000 0.000000
vt 0.000000 0.000000
vt 0.000000 0.000000
vt 0.000000 0.000000
vt 0.000000 0.000000
vt 0.000000 0.000000
vt 0.000000 0.000000
vt 0.000000 0.000000
vt 0.000000 0.000000
vt 0.000000 0.000000
vt 0.000000 0.000000
vt 0.000000 0.000000
vt 0.000000 0.000000
vt 0.000000 0.000000
vt 0.000000 0.000000
vt 0.000000 0.000000
vt 0.000000 0.000000
vt 0.000000 0.000000
vt 0.000000 0.000000
vt 0.000000 0.000000
vt 0.000000 0.000000
vt 0.000000 0.000000
vt 0.000000 0.000000
vt 0.000000 0.000000
vt 0.000000 0.000000
vt 0.000000 0.000000
vt 0.000000 0.000000
vt 0.000000 0.000000
vt 0.000000 0.000000
vt 0.000000 0.000000
vt 0.000000 0.000000
vt 0.000000 0.000000
vt 0.000000 0.000000
vt 0.000000 0.000000
vn 1.0000 0.0000 0.0000
vn 0.0000 1.0000 0.0000
vn -0.0000 -0.0000 1.0000
vn 0.0000 0.0000 -1.0000
vn -1.0000 -0.0000 0.0000
vn 0.0000 -1.0000 -0.0000
vn 0.3717 0.3717 -0.8507
vn 0.7051 0.3214 -0.6321
vn 0.3214 0.7051 -0.6321
vn 0.3214 -0.7051 -0.6321
vn 0.7051 -0.3214 -0.6321
vn 0.3717 -0.3717 -0.8507
vn -0.5759 -0.4763 -0.6644
vn -0.4437 -0.7817 -0.4383
vn -0.8062 -0.4737 -0.3544
vn -0.7588 -0.4606 0.4606
vn -0.4606 -0.7588 0.4606
vn -0.4606 -0.4606 0.7588
vn 0.3740 -0.7040 0.6038
vn 0.4158 -0.5509 0.7236
vn 0.9017 -0.3572 0.2438
vn 0.3740 0.7040 0.6038
vn 0.9089 0.3510 0.2250
vn 0.4191 0.5513 0.7214
vn -0.6863 -0.3254 -0.6505
vn -0.3182 -0.7294 -0.6056
vn -0.3802 -0.3666 -0.8491
vn 0.7331 0.4534 -0.5069
vn 0.4033 0.4599 -0.7911
vn 0.4702 0.7462 -0.4713
vn 0.7329 -0.4543 -0.5064
vn 0.4690 -0.7443 -0.4754
vn 0.4048 -0.4541 -0.7937
vn 0.4606 -0.4606 0.7588
vn 0.4606 -0.7588 0.4606
vn 0.7588 -0.4606 0.4606
vn 0.4606 0.4606 0.7588
vn 0.7588 0.4606 0.4606
vn 0.4606 0.7588 0.4606
vn -0.7051 -0.3214 0.6321
vn -0.3717 -0.3717 0.8507
vn -0.3214 -0.7051 0.6321
vn -0.6871 0.3217 -0.6514
vn -0.3654 0.3598 -0.8585
vn -0.3186 0.7054 -0.6332
vn 0.7588 0.4606 -0.4606
vn 0.4606 0.4606 -0.7588
vn 0.4606 0.7588 -0.4606
vn 0.4606 -0.4606 -0.7588
vn 0.7588 -0.4606 -0.4606
vn 0.4606 -0.7588 -0.4606
vn 0.3214 -0.7051 0.6321
vn 0.3812 -0.3797 0.8430
vn 0.7051 -0.3214 0.6321
vn 0.3869 -0.3793 -0.8405
vn 0.3211 -0.7282 -0.6055
vn 0.7048 -0.3250 -0.6305
vn -0.7051 0.3214 0.6321
vn -0.3214 0.7051 0.6321
vn -0.3717 0.3717 0.8507
vn -0.5811 0.4773 -0.6592
vn -0.8082 0.4742 -0.3492
vn -0.4431 0.7827 -0.4371
vn 0.7051 0.3214 0.6321
vn 0.3842 0.3816 0.8407
vn 0.3214 0.7051 0.6321
vn -0.7588 0.4606 0.4606
vn -0.4606 0.4606 0.7588
vn -0.4606 0.7588 0.4606
vn 0.0000 0.7071 0.7071
s 1
f 63/1/1 47/2/1 40/3/1
f 71/4/2 42/5/2 58/6/2
f 51/7/1 2/8/1 54/9/1
f 50/10/3 35/11/3 67/12/3
f 6/13/4 1/14/4 38/15/4
f 55/16/5 19/17/5 37/18/5
f 36/19/6 53/20/6 20/21/6
f 10/22/5 65/23/5 9/24/5
f 66/25/2 68/26/2 24/27/2
f 52/28/4 64/29/4 23/30/4
f 35/11/3 57/31/3 28/32/3
f 45/33/6 8/34/6 48/35/6
f 29/36/6 4/37/6 26/38/6
f 32/39/1 25/40/1 22/41/1
f 15/42/1 60/43/1 5/44/1
f 1/14/7 2/8/8 3/45/9
f 4/37/10 5/44/11 6/13/12
f 7/46/13 8/34/14 9/24/15
f 10/22/16 11/47/17 12/48/18
f 13/49/19 14/50/20 15/42/21
f 16/51/22 17/52/23 18/53/24
f 19/17/25 20/21/26 21/54/27
f 22/41/28 23/30/29 24/27/30
f 25/40/31 26/38/32 27/55/33
f 28/32/34 29/36/35 30/56/36
f 31/57/37 32/39/38 33/58/39
f 34/59/40 35/11/41 36/19/42
f 37/18/43 38/15/44 39/60/45
f 40/3/46 41/61/47 42/5/48
f 43/62/36 44/63/34 45/33/35
f 46/64/49 47/2/50 48/35/51
f 49/65/52 50/10/53 51/7/54
f 52/28/55 53/20/56 54/9/57
f 55/16/58 56/66/59 57/31/60
f 58/6/9 59/67/7 60/43/8
f 61/68/39 62/69/37 63/1/38
f 64/29/61 65/23/62 66/25/63
f 69/70/64 70/71/65 71/4/66
f 72/72/67 73/73/68 74/74/69
f 22/41/28 27/55/33 23/30/29
f 32/39/38 28/32/34 30/56/36
f 21/54/27 37/18/43 19/17/25
f 34/59/40 20/21/26 19/17/25
f 47/2/50 41/61/47 40/3/46
f 48/35/51 43/62/36 45/33/35
f 20/21/26 52/28/55 21/54/27
f 54/9/57 49/65/52 51/7/54
f 46/64/49 8/34/14 7/46/13
f 11/47/17 9/24/15 8/34/14
f 39/60/45 1/14/7 3/45/9
f 56/66/59 37/18/43 39/60/45
f 41/61/47 58/6/9 42/5/48
f 61/68/39 40/3/46 42/5/48
f 13/49/19 5/44/11 4/37/10
f 23/30/29 66/25/63 24/27/30
f 33/58/39 22/41/28 24/27/30
f 5/44/11 59/67/7 6/13/12
f 69/70/64 58/6/9 60/43/8
f 4/37/10 27/55/33 26/38/32
f 30/56/36 26/38/32 25/40/31
f 52/28/55 2/8/8 1/14/7
f 17/52/23 3/45/9 2/8/8
f 65/23/62 7/46/13 9/24/15
f 72/72/67 66/25/63 65/23/62
f 68/26/70 73/73/68 67/12/70
f 45/33/35 12/48/18 11/47/17
f 63/1/38 44/63/34 43/62/36
f 71/4/66 62/69/37 61/68/39
f 17/52/23 50/10/53 18/53/24
f 73/73/68 10/22/16 12/48/18
f 18/53/24 56/66/59 16/51/22
f 70/71/65 15/42/21 14/50/20
f 28/32/34 13/49/19 29/36/35
f 33/58/39 67/12/70 31/57/37
f 50/10/53 36/19/42 35/11/41
f 55/16/58 35/11/41 34/59/40
f 16/51/2 39/60/2 3/45/2
f 63/1/1 43/62/1 47/2/1
f 71/4/2 61/68/2 42/5/2
f 51/7/1 17/52/1 2/8/1
f 67/12/3 73/73/3 50/10/3
f 73/73/3 12/48/3 18/53/3
f 50/10/3 73/73/3 18/53/3
f 12/48/3 44/63/3 70/71/3
f 44/63/3 62/69/3 70/71/3
f 70/71/3 14/50/3 12/48/3
f 14/50/3 18/53/3 12/48/3
f 59/67/4 41/61/4 46/64/4
f 7/46/4 64/29/4 6/13/4
f 64/29/4 1/14/4 6/13/4
f 38/15/4 21/54/4 27/55/4
f 21/54/4 23/30/4 27/55/4
f 59/67/4 46/64/4 7/46/4
f 6/13/4 59/67/4 7/46/4
f 38/15/4 27/55/4 6/13/4
f 55/16/5 34/59/5 19/17/5
f 36/19/6 49/65/6 53/20/6
f 10/22/5 72/72/5 65/23/5
f 74/74/2 68/26/2 66/25/2
f 68/26/2 33/58/2 24/27/2
f 23/30/4 21/54/4 52/28/4
f 52/28/4 1/14/4 64/29/4
f 57/31/3 18/53/3 14/50/3
f 31/57/3 67/12/3 35/11/3
f 57/31/3 14/50/3 28/32/3
f 31/57/3 35/11/3 28/32/3
f 45/33/6 11/47/6 8/34/6
f 29/36/6 13/49/6 4/37/6
f 32/39/1 30/56/1 25/40/1
f 15/42/1 69/70/1 60/43/1
f 22/41/28 25/40/31 27/55/33
f 32/39/38 31/57/37 28/32/34
f 21/54/27 38/15/44 37/18/43
f 34/59/40 36/19/42 20/21/26
f 47/2/50 46/64/49 41/61/47
f 48/35/51 47/2/50 43/62/36
f 20/21/26 53/20/56 52/28/55
f 54/9/57 53/20/56 49/65/52
f 46/64/49 48/35/51 8/34/14
f 11/47/17 10/22/16 9/24/15
f 39/60/45 38/15/44 1/14/7
f 56/66/59 55/16/58 37/18/43
f 41/61/47 59/67/7 58/6/9
f 61/68/39 63/1/38 40/3/46
f 13/49/19 15/42/21 5/44/11
f 23/30/29 64/29/61 66/25/63
f 33/58/39 32/39/38 22/41/28
f 5/44/11 60/43/8 59/67/7
f 69/70/64 71/4/66 58/6/9
f 4/37/10 6/13/12 27/55/33
f 30/56/36 29/36/35 26/38/32
f 52/28/55 54/9/57 2/8/8
f 17/52/23 16/51/22 3/45/9
f 65/23/62 64/29/61 7/46/13
f 72/72/67 74/74/69 66/25/63
f 68/26/70 74/74/69 73/73/68
f 45/33/35 44/63/34 12/48/18
f 63/1/38 62/69/37 44/63/34
f 71/4/66 70/71/65 62/69/37
f 17/52/23 51/7/54 50/10/53
f 73/73/68 72/72/67 10/22/16
f 18/53/24 57/31/60 56/66/59
f 70/71/65 69/70/64 15/42/21
f 28/32/34 14/50/20 13/49/19
f 33/58/39 68/26/70 67/12/70
f 50/10/53 49/65/52 36/19/42
f 55/16/58 57/31/60 35/11/41
f 16/51/2 56/66/2 39/60/2
