# Blender v2.80 (sub 74) OBJ File: ''
# www.blender.org
v -0.655292 -3.889467 -0.866693
v -0.655292 -3.939467 -0.816693
v -0.705292 -3.889467 -0.816693
v 0.705293 0.107355 -0.816692
v 0.655293 0.107355 -0.866692
v 0.655293 0.157355 -0.816692
v 0.655294 -3.939467 -0.816693
v 0.655294 -3.889467 -0.866693
v 0.705294 -3.889467 -0.816693
v 0.655293 0.107355 0.866692
v 0.705293 0.107355 0.816692
v 0.655293 0.157355 0.816692
v -0.655292 -3.889467 0.866691
v -0.705292 -3.889467 0.816691
v -0.655292 -3.939467 0.816691
v 0.705294 -3.889467 0.816691
v 0.655294 -3.889467 0.866691
v 0.655294 -3.939467 0.816691
v -0.705292 0.107355 0.816692
v -0.655292 0.107355 0.866692
v -0.655292 0.157355 0.816692
v -0.705292 0.107355 -0.816692
v -0.655292 0.157355 -0.816692
v -0.655292 0.107355 -0.866692
v -0.655292 1.249840 -0.866692
v -0.655292 1.199840 -0.816692
v -0.705292 1.249840 -0.816692
v 0.655293 2.532271 -0.866692
v 0.655293 2.582271 -0.816692
v 0.705293 2.532271 -0.816692
v 0.655294 1.199840 -0.816692
v 0.655294 1.249840 -0.866692
v 0.705294 1.249840 -0.816692
v 0.655293 2.532271 0.866692
v 0.705293 2.532271 0.816692
v 0.655293 2.582271 0.816692
v -0.655292 1.249840 0.866692
v -0.705292 1.249840 0.816692
v -0.655292 1.199840 0.816692
v 0.705294 1.249840 0.816692
v 0.655294 1.249840 0.866692
v 0.655294 1.199840 0.816692
v -0.655292 2.532271 -0.866692
v -0.705292 2.532271 -0.816692
v -0.655292 2.582271 -0.816692
v -0.705292 2.532271 0.816692
v -0.655292 2.532271 0.866692
v -0.655292 2.582271 0.816692
vt 0.000000 0.000000
vt 0.000000 0.000000
vt 0.000000 0.000000
vt 0.000000 0.000000
vt 0.000000 0.000000
vt 0.000000 0.000000
vt 0.000000 0.000000
vt 0.000000 0.000000
vt 0.000000 0.000000
vt 0.000000 0.000000
vt 0.000000 0.000000
vt 0.000000 0.000000
vt 0.000000 0.000000
vt 0.000000 0.000000
vt 0.000000 0.000000
vt 0.000000 0.000000
vt 0.000000 0.000000
vt 0.000000 0.000000
vt 0.000000 0.000000
vt 0.000000 0.000000
vt 0.000000 0.000000
vt 0.000000 0.000000
vt 0.000000 0.000000
vt 0.000000 0.000000
vt 0.000000 0.000000
vt 0.000000 0.000000
vt 0.000000 0.000000
vt 0.000000 0.000000
vt 0.000000 0.000000
vt 0.000000 0.000000
vt 0.000000 0.000000
vt 0.000000 0.000000
vt 0.000000 0.000000
vt 0.000000 0.000000
vt 0.000000 0.000000
vt 0.000000 0.000000
vt 0.000000 0.000000
vt 0.000000 0.000000
vt 0.000000 0.000000
vt 0.000000 0.000000
vt 0.000000 0.000000
vt 0.000000 0.000000
vt 0.000000 0.000000
vt 0.000000 0.000000
vt 0.000000 0.000000
vt 0.000000 0.000000
vt 0.000000 0.000000
vt 0.000000 0.000000
vn 0.0000 0.0000 -1.0000
vn 0.0000 1.0000 0.0000
vn 1.0000 0.0000 0.0000
vn -1.0000 -0.0000 0.0000
vn 0.0000 -0.0000 1.0000
vn 0.0000 -1.0000 -0.0000
vn -0.4606 -0.4606 -0.7588
vn -0.4606 -0.7588 -0.4606
vn -0.7588 -0.4606 -0.4606
vn 0.7588 0.4606 -0.4606
vn 0.4606 0.4606 -0.7588
vn 0.4606 0.7588 -0.4606
vn 0.4606 -0.7588 -0.4606
vn 0.4606 -0.4606 -0.7588
vn 0.7588 -0.4606 -0.4606
vn 0.4606 0.4606 0.7588
vn 0.7588 0.4606 0.4606
vn 0.4606 0.7588 0.4606
vn -0.4606 -0.4606 0.7588
vn -0.7588 -0.4606 0.4606
vn -0.4606 -0.7588 0.4606
vn 0.7588 -0.4606 0.4606
vn 0.4606 -0.4606 0.7588
vn 0.4606 -0.7588 0.4606
vn -0.7588 0.4606 0.4606
vn -0.4606 0.4606 0.7588
vn -0.4606 0.7588 0.4606
vn -0.7588 0.4606 -0.4606
vn -0.4606 0.7588 -0.4606
vn -0.4606 0.4606 -0.7588
s 1
f 25/1/1 28/2/1 32/3/1
f 36/4/2 45/5/2 48/6/2
f 16/7/3 4/8/3 11/9/3
f 46/10/4 27/11/4 38/12/4
f 20/13/5 17/14/5 10/15/5
f 24/16/1 8/17/1 1/18/1
f 39/19/6 31/20/6 42/21/6
f 40/22/3 30/23/3 35/24/3
f 12/25/2 23/26/2 21/27/2
f 19/28/4 3/29/4 14/30/4
f 34/31/5 37/32/5 41/33/5
f 1/18/7 2/34/8 3/29/9
f 4/8/10 5/35/11 6/36/12
f 7/37/13 8/17/14 9/38/15
f 10/15/16 11/9/17 12/25/18
f 13/39/19 14/30/20 15/40/21
f 16/7/22 17/14/23 18/41/24
f 19/28/25 20/13/26 21/27/27
f 22/42/28 23/26/29 24/16/30
f 25/1/7 26/43/8 27/11/9
f 28/2/11 29/44/12 30/23/10
f 31/20/13 32/3/14 33/45/15
f 34/31/16 35/24/17 36/4/18
f 37/32/19 38/12/20 39/19/21
f 40/22/22 41/33/23 42/21/24
f 43/46/30 44/47/28 45/5/29
f 46/10/25 47/48/26 48/6/27
f 8/17/14 2/34/8 1/18/7
f 9/38/15 5/35/11 4/8/10
f 17/14/23 11/9/17 10/15/16
f 18/41/24 13/39/19 15/40/21
f 23/26/29 19/28/25 21/27/27
f 24/16/30 6/36/12 5/35/11
f 15/40/21 3/29/9 2/34/8
f 22/42/28 1/18/7 3/29/9
f 16/7/22 7/37/13 9/38/15
f 12/25/18 4/8/10 6/36/12
f 32/3/14 26/43/8 25/1/7
f 33/45/15 28/2/11 30/23/10
f 41/33/23 35/24/17 34/31/16
f 42/21/24 37/32/19 39/19/21
f 39/19/21 27/11/9 26/43/8
f 44/47/28 25/1/7 27/11/9
f 40/22/22 31/20/13 33/45/15
f 36/4/18 30/23/10 29/44/12
f 46/10/25 45/5/29 44/47/28
f 28/2/11 45/5/29 29/44/12
f 21/27/27 10/15/16 12/25/18
f 20/13/26 14/30/20 13/39/19
f 48/6/27 34/31/16 36/4/18
f 47/48/26 38/12/20 37/32/19
f 15/40/6 7/37/6 18/41/6
f 25/1/1 43/46/1 28/2/1
f 36/4/2 29/44/2 45/5/2
f 16/7/3 9/38/3 4/8/3
f 46/10/4 44/47/4 27/11/4
f 20/13/5 13/39/5 17/14/5
f 24/16/1 5/35/1 8/17/1
f 39/19/6 26/43/6 31/20/6
f 40/22/3 33/45/3 30/23/3
f 12/25/2 6/36/2 23/26/2
f 19/28/4 22/42/4 3/29/4
f 34/31/5 47/48/5 37/32/5
f 8/17/14 7/37/13 2/34/8
f 9/38/15 8/17/14 5/35/11
f 17/14/23 16/7/22 11/9/17
f 18/41/24 17/14/23 13/39/19
f 23/26/29 22/42/28 19/28/25
f 24/16/30 23/26/29 6/36/12
f 15/40/21 14/30/20 3/29/9
f 22/42/28 24/16/30 1/18/7
f 16/7/22 18/41/24 7/37/13
f 12/25/18 11/9/17 4/8/10
f 32/3/14 31/20/13 26/43/8
f 33/45/15 32/3/14 28/2/11
f 41/33/23 40/22/22 35/24/17
f 42/21/24 41/33/23 37/32/19
f 39/19/21 38/12/20 27/11/9
f 44/47/28 43/46/30 25/1/7
f 40/22/22 42/21/24 31/20/13
f 36/4/18 35/24/17 30/23/10
f 46/10/25 48/6/27 45/5/29
f 28/2/11 43/46/30 45/5/29
f 21/27/27 20/13/26 10/15/16
f 20/13/26 19/28/25 14/30/20
f 48/6/27 47/48/26 34/31/16
f 47/48/26 46/10/25 38/12/20
f 15/40/6 2/34/6 7/37/6
