# Blender v2.80 (sub 74) OBJ File: ''
# www.blender.org
v -0.214810 0.755293 -0.902496
v -0.114810 0.705293 -0.852496
v -0.164810 0.655293 -0.852496
v -1.525396 -2.771172 -0.902496
v -1.525396 -2.821172 -0.852496
v -1.575396 -2.771172 -0.852496
v -1.525396 2.065879 -0.902496
v -1.575396 2.065879 -0.852496
v -1.525396 2.115879 -0.852496
v -0.114810 0.705293 0.852496
v -0.214810 0.755293 0.902496
v -0.164810 0.655293 0.852496
v 1.690206 2.065879 0.902496
v 1.740206 2.065879 0.852496
v 1.690206 2.115879 0.852496
v -1.525396 2.065879 0.902496
v -1.525396 2.115879 0.852496
v -1.575396 2.065879 0.852496
v 1.690206 0.755293 -0.902496
v 1.740206 0.755293 -0.852496
v 1.690206 0.705293 -0.852496
v 1.690206 2.115879 -0.852496
v 1.740206 2.065879 -0.852496
v 1.690206 2.065879 -0.902496
v 1.740206 0.755293 0.852496
v 1.690206 0.755293 0.902496
v 1.690206 0.705293 0.852496
v -1.575396 -2.771172 0.852495
v -1.525396 -2.821172 0.852495
v -1.525396 -2.771172 0.902496
v -0.164810 -2.771172 0.852495
v -0.214810 -2.771172 0.902496
v -0.214810 -2.821172 0.852495
v -0.164810 -2.771172 -0.852496
v -0.214810 -2.821172 -0.852496
v -0.214810 -2.771172 -0.902496
vt 0.000000 0.000000
vt 0.000000 0.000000
vt 0.000000 0.000000
vt 0.000000 0.000000
vt 0.000000 0.000000
vt 0.000000 0.000000
vt 0.000000 0.000000
vt 0.000000 0.000000
vt 0.000000 0.000000
vt 0.000000 0.000000
vt 0.000000 0.000000
vt 0.000000 0.000000
vt 0.000000 0.000000
vt 0.000000 0.000000
vt 0.000000 0.000000
vt 0.000000 0.000000
vt 0.000000 0.000000
vt 0.000000 0.000000
vt 0.000000 0.000000
vt 0.000000 0.000000
vt 0.000000 0.000000
vt 0.000000 0.000000
vt 0.000000 0.000000
vt 0.000000 0.000000
vt 0.000000 0.000000
vt 0.000000 0.000000
vt 0.000000 0.000000
vt 0.000000 0.000000
vt 0.000000 0.000000
vt 0.000000 0.000000
vt 0.000000 0.000000
vt 0.000000 0.000000
vt 0.000000 0.000000
vt 0.000000 0.000000
vt 0.000000 0.000000
vt 0.000000 0.000000
vn 0.0000 1.0000 0.0000
vn 1.0000 0.0000 0.0000
vn 0.0000 -1.0000 -0.0000
vn -1.0000 0.0000 0.0000
vn 0.0000 -0.0000 1.0000
vn 0.3717 -0.3717 -0.8507
vn 0.3214 -0.7051 -0.6321
vn 0.7051 -0.3214 -0.6321
vn -0.4606 -0.4606 -0.7588
vn -0.4606 -0.7588 -0.4606
vn -0.7588 -0.4606 -0.4606
vn -0.4606 0.4606 -0.7588
vn -0.7588 0.4606 -0.4606
vn -0.4606 0.7588 -0.4606
vn 0.3214 -0.7051 0.6321
vn 0.3717 -0.3717 0.8507
vn 0.7051 -0.3214 0.6321
vn 0.4606 0.4606 0.7588
vn 0.7588 0.4606 0.4606
vn 0.4606 0.7588 0.4606
vn -0.4606 0.4606 0.7588
vn -0.4606 0.7588 0.4606
vn -0.7588 0.4606 0.4606
vn 0.4606 -0.4606 -0.7588
vn 0.7588 -0.4606 -0.4606
vn 0.4606 -0.7588 -0.4606
vn 0.4606 0.7588 -0.4606
vn 0.7588 0.4606 -0.4606
vn 0.4606 0.4606 -0.7588
vn 0.7588 -0.4606 0.4606
vn 0.4606 -0.4606 0.7588
vn 0.4606 -0.7588 0.4606
vn -0.7588 -0.4606 0.4606
vn -0.4606 -0.7588 0.4606
vn -0.4606 -0.4606 0.7588
vn 0.0000 0.0000 -1.0000
s 1
f 15/1/1 9/2/1 17/3/1
f 25/4/2 23/5/2 14/6/2
f 29/7/3 35/8/3 33/9/3
f 31/10/2 3/11/2 12/12/2
f 10/13/3 21/14/3 27/15/3
f 18/16/4 6/17/4 28/18/4
f 11/19/5 13/20/5 16/21/5
f 1/22/6 2/23/7 3/11/8
f 4/24/9 5/25/10 6/17/11
f 7/26/12 8/27/13 9/2/14
f 10/13/15 11/19/16 12/12/17
f 13/20/18 14/6/19 15/1/20
f 16/21/21 17/3/22 18/16/23
f 19/28/24 20/29/25 21/14/26
f 22/30/27 23/5/28 24/31/29
f 25/4/30 26/32/31 27/15/32
f 28/18/33 29/7/34 30/33/35
f 31/10/30 32/34/31 33/9/32
f 34/35/25 35/8/26 36/36/24
f 8/27/13 4/24/9 6/17/11
f 17/3/22 13/20/18 15/1/20
f 23/5/28 15/1/20 14/6/19
f 24/31/29 20/29/25 19/28/24
f 25/4/30 21/14/26 20/29/25
f 19/28/24 2/23/7 1/22/6
f 29/7/34 6/17/11 5/25/10
f 35/8/26 31/10/30 33/9/32
f 36/36/24 5/25/10 4/24/9
f 18/16/23 9/2/14 8/27/13
f 22/30/27 7/26/12 9/2/14
f 10/13/15 3/11/8 2/23/7
f 3/11/8 36/36/24 1/22/6
f 33/9/32 30/33/35 29/7/34
f 32/34/31 12/12/17 11/19/16
f 10/13/15 26/32/31 11/19/16
f 26/32/31 14/6/19 13/20/18
f 28/18/33 16/21/21 18/16/23
f 7/26/36 1/22/36 4/24/36
f 15/1/1 22/30/1 9/2/1
f 25/4/2 20/29/2 23/5/2
f 29/7/3 5/25/3 35/8/3
f 31/10/2 34/35/2 3/11/2
f 10/13/3 2/23/3 21/14/3
f 18/16/4 8/27/4 6/17/4
f 11/19/5 26/32/5 13/20/5
f 16/21/5 30/33/5 11/19/5
f 30/33/5 32/34/5 11/19/5
f 8/27/13 7/26/12 4/24/9
f 17/3/22 16/21/21 13/20/18
f 23/5/28 22/30/27 15/1/20
f 24/31/29 23/5/28 20/29/25
f 25/4/30 27/15/32 21/14/26
f 19/28/24 21/14/26 2/23/7
f 29/7/34 28/18/33 6/17/11
f 35/8/26 34/35/25 31/10/30
f 36/36/24 35/8/26 5/25/10
f 18/16/23 17/3/22 9/2/14
f 22/30/27 24/31/29 7/26/12
f 10/13/15 12/12/17 3/11/8
f 3/11/8 34/35/25 36/36/24
f 33/9/32 32/34/31 30/33/35
f 32/34/31 31/10/30 12/12/17
f 10/13/15 27/15/32 26/32/31
f 26/32/31 25/4/30 14/6/19
f 28/18/33 30/33/35 16/21/21
f 7/26/36 24/31/36 1/22/36
f 24/31/36 19/28/36 1/22/36
f 1/22/36 36/36/36 4/24/36
