# Blender v2.80 (sub 74) OBJ File: ''
# www.blender.org
v 0.796902 -0.268934 1.031956
v 0.696902 -0.218934 1.081956
v 0.746902 -0.318934 1.031956
v 0.746902 1.274869 1.031956
v 0.696902 1.174869 1.081956
v 0.796902 1.224869 1.031956
v -0.746901 1.274869 1.031956
v -0.796901 1.224869 1.031956
v -0.696901 1.174869 1.081956
v 0.746902 1.274869 -1.031956
v 0.796902 1.224869 -1.031956
v 0.696902 1.174869 -1.081956
v -0.746901 -0.318934 -1.031956
v -0.796901 -0.268934 -1.031956
v -0.696901 -0.218934 -1.081956
v -0.796901 1.224869 -1.031956
v -0.746901 1.274869 -1.031956
v -0.696901 1.174869 -1.081956
v -0.796901 -0.268934 1.031956
v -0.746901 -0.318934 1.031956
v -0.696901 -0.218934 1.081956
v -2.190704 -0.218934 -1.081956
v -2.190704 -0.268934 -1.031956
v -2.240704 -0.218934 -1.031956
v -0.696901 2.668672 -1.081956
v -0.746901 2.668672 -1.031956
v -0.696901 2.718672 -1.031956
v 2.190705 -0.268934 1.031956
v 2.240705 -0.218934 1.031956
v 2.190705 -0.218934 1.081956
v 0.696902 -0.218934 -1.081956
v 0.796902 -0.268934 -1.031956
v 0.746902 -0.318934 -1.031956
v 2.240705 -0.218934 -1.031956
v 2.190705 -0.268934 -1.031956
v 2.190705 -0.218934 -1.081956
v 2.190705 1.174869 -1.081956
v 2.190705 1.224869 -1.031956
v 2.240705 1.174869 -1.031956
v 0.746902 -4.580540 1.031955
v 0.696902 -4.580540 1.081955
v 0.696902 -4.630540 1.031955
v -0.696901 -4.580540 -1.081957
v -0.696901 -4.630540 -1.031957
v -0.746901 -4.580540 -1.031957
v 0.746902 -4.580540 -1.031957
v 0.696902 -4.630540 -1.031957
v 0.696902 -4.580540 -1.081957
v 0.746902 2.668672 1.031957
v 0.696902 2.718672 1.031957
v 0.696902 2.668672 1.081957
v 0.696902 2.718672 -1.031956
v 0.746902 2.668672 -1.031956
v 0.696902 2.668672 -1.081956
v 2.190705 1.224869 1.031956
v 2.190705 1.174869 1.081956
v 2.240705 1.174869 1.031956
v -0.696901 -4.630540 1.031955
v -0.696901 -4.580540 1.081955
v -0.746901 -4.580540 1.031955
v -2.240704 1.174869 1.031956
v -2.190704 1.174869 1.081956
v -2.190704 1.224869 1.031956
v -2.240704 1.174869 -1.031956
v -2.190704 1.224869 -1.031956
v -2.190704 1.174869 -1.081956
v -0.746901 2.668672 1.031957
v -0.696901 2.668672 1.081957
v -0.696901 2.718672 1.031957
v -2.190704 -0.268934 1.031956
v -2.190704 -0.218934 1.081956
v -2.240704 -0.218934 1.031956
vt 0.000000 0.000000
vt 0.000000 0.000000
vt 0.000000 0.000000
vt 0.000000 0.000000
vt 0.000000 0.000000
vt 0.000000 0.000000
vt 0.000000 0.000000
vt 0.000000 0.000000
vt 0.000000 0.000000
vt 0.000000 0.000000
vt 0.000000 0.000000
vt 0.000000 0.000000
vt 0.000000 0.000000
vt 0.000000 0.000000
vt 0.000000 0.000000
vt 0.000000 0.000000
vt 0.000000 0.000000
vt 0.000000 0.000000
vt 0.000000 0.000000
vt 0.000000 0.000000
vt 0.000000 0.000000
vt 0.000000 0.000000
vt 0.000000 0.000000
vt 0.000000 0.000000
vt 0.000000 0.000000
vt 0.000000 0.000000
vt 0.000000 0.000000
vt 0.000000 0.000000
vt 0.000000 0.000000
vt 0.000000 0.000000
vt 0.000000 0.000000
vt 0.000000 0.000000
vt 0.000000 0.000000
vt 0.000000 0.000000
vt 0.000000 0.000000
vt 0.000000 0.000000
vt 0.000000 0.000000
vt 0.000000 0.000000
vt 0.000000 0.000000
vt 0.000000 0.000000
vt 0.000000 0.000000
vt 0.000000 0.000000
vt 0.000000 0.000000
vt 0.000000 0.000000
vt 0.000000 0.000000
vt 0.000000 0.000000
vt 0.000000 0.000000
vt 0.000000 0.000000
vt 0.000000 0.000000
vt 0.000000 0.000000
vt 0.000000 0.000000
vt 0.000000 0.000000
vt 0.000000 0.000000
vt 0.000000 0.000000
vt 0.000000 0.000000
vt 0.000000 0.000000
vt 0.000000 0.000000
vt 0.000000 0.000000
vt 0.000000 0.000000
vt 0.000000 0.000000
vt 0.000000 0.000000
vt 0.000000 0.000000
vt 0.000000 0.000000
vt 0.000000 0.000000
vt 0.000000 0.000000
vt 0.000000 0.000000
vt 0.000000 0.000000
vt 0.000000 0.000000
vt 0.000000 0.000000
vt 0.000000 0.000000
vt 0.000000 0.000000
vt 0.000000 0.000000
vn 0.0000 -0.0000 1.0000
vn 0.0000 1.0000 0.0000
vn 0.0000 -1.0000 0.0000
vn 0.0000 0.0000 -1.0000
vn 1.0000 0.0000 0.0000
vn -1.0000 -0.0000 0.0000
vn 0.3214 -0.7051 0.6321
vn 0.3717 -0.3717 0.8507
vn 0.7051 -0.3214 0.6321
vn 0.7051 0.3214 0.6321
vn 0.3717 0.3717 0.8507
vn 0.3214 0.7051 0.6321
vn -0.7051 0.3214 0.6321
vn -0.3214 0.7051 0.6321
vn -0.3717 0.3717 0.8507
vn 0.7051 0.3214 -0.6321
vn 0.3214 0.7051 -0.6321
vn 0.3717 0.3717 -0.8507
vn -0.7051 -0.3214 -0.6321
vn -0.3214 -0.7051 -0.6321
vn -0.3717 -0.3717 -0.8507
vn -0.3214 0.7051 -0.6321
vn -0.7051 0.3214 -0.6321
vn -0.3717 0.3717 -0.8507
vn -0.3214 -0.7051 0.6321
vn -0.7051 -0.3214 0.6321
vn -0.3717 -0.3717 0.8507
vn -0.4606 -0.4606 -0.7588
vn -0.4606 -0.7588 -0.4606
vn -0.7588 -0.4606 -0.4606
vn -0.4606 0.4606 -0.7588
vn -0.7588 0.4606 -0.4606
vn -0.4606 0.7588 -0.4606
vn 0.4606 -0.7588 0.4606
vn 0.7588 -0.4606 0.4606
vn 0.4606 -0.4606 0.7588
vn 0.3717 -0.3717 -0.8507
vn 0.3214 -0.7051 -0.6321
vn 0.7051 -0.3214 -0.6321
vn 0.7588 -0.4606 -0.4606
vn 0.4606 -0.7588 -0.4606
vn 0.4606 -0.4606 -0.7588
vn 0.4606 0.4606 -0.7588
vn 0.4606 0.7588 -0.4606
vn 0.7588 0.4606 -0.4606
vn 0.7588 0.4606 0.4606
vn 0.4606 0.7588 0.4606
vn 0.4606 0.4606 0.7588
vn -0.4606 -0.7588 0.4606
vn -0.4606 -0.4606 0.7588
vn -0.7588 -0.4606 0.4606
vn -0.7588 0.4606 0.4606
vn -0.4606 0.4606 0.7588
vn -0.4606 0.7588 0.4606
s 1
f 2/1/1 9/2/1 21/3/1
f 50/4/2 27/5/2 69/6/2
f 8/7/2 65/8/2 63/9/2
f 58/10/3 47/11/3 42/12/3
f 55/13/2 11/14/2 6/15/2
f 18/16/4 12/17/4 31/18/4
f 40/19/5 33/20/5 3/21/5
f 61/22/6 24/23/6 72/24/6
f 67/25/6 17/26/6 7/27/6
f 29/28/5 39/29/5 57/30/5
f 4/31/5 53/32/5 49/33/5
f 20/34/6 45/35/6 60/36/6
f 70/37/3 14/38/3 19/39/3
f 1/40/7 2/1/8 3/21/9
f 4/31/10 5/41/11 6/15/12
f 7/27/13 8/7/14 9/2/15
f 10/42/16 11/14/17 12/17/18
f 13/43/19 14/38/20 15/44/21
f 16/45/22 17/26/23 18/16/24
f 19/39/25 20/34/26 21/3/27
f 22/46/28 23/47/29 24/23/30
f 25/48/31 26/49/32 27/5/33
f 28/50/34 29/28/35 30/51/36
f 31/18/37 32/52/38 33/20/39
f 34/53/40 35/54/41 36/55/42
f 37/56/43 38/57/44 39/29/45
f 40/19/35 41/58/36 42/12/34
f 43/59/28 44/60/29 45/35/30
f 46/61/40 47/11/41 48/62/42
f 49/33/46 50/4/47 51/63/48
f 52/64/44 53/32/45 54/65/43
f 55/13/47 56/66/48 57/30/46
f 58/10/49 59/67/50 60/36/51
f 61/22/52 62/68/53 63/9/54
f 64/69/32 65/8/33 66/70/31
f 67/25/52 68/71/53 69/6/54
f 70/37/49 71/72/50 72/24/51
f 20/34/26 14/38/20 13/43/19
f 14/38/20 22/46/28 15/44/21
f 17/26/23 8/7/14 7/27/13
f 17/26/23 25/48/31 18/16/24
f 35/54/41 29/28/35 28/50/34
f 36/55/42 32/52/38 31/18/37
f 11/14/17 4/31/10 6/15/12
f 11/14/17 37/56/43 12/17/18
f 47/11/41 40/19/35 42/12/34
f 48/62/42 44/60/29 43/59/28
f 53/32/45 50/4/47 49/33/46
f 54/65/43 10/42/16 12/17/18
f 55/13/47 39/29/45 38/57/44
f 37/56/43 34/53/40 36/55/42
f 58/10/49 45/35/30 44/60/29
f 43/59/28 13/43/19 15/44/21
f 65/8/33 61/22/52 63/9/54
f 66/70/31 16/45/22 18/16/24
f 67/25/52 27/5/33 26/49/32
f 52/64/44 25/48/31 27/5/33
f 70/37/49 24/23/30 23/47/29
f 64/69/32 22/46/28 24/23/30
f 33/20/39 1/40/7 3/21/9
f 33/20/39 48/62/42 31/18/37
f 8/7/14 62/68/53 9/2/15
f 72/24/51 62/68/53 61/22/52
f 20/34/26 59/67/50 21/3/27
f 59/67/50 42/12/34 41/58/36
f 71/72/50 19/39/25 21/3/27
f 69/6/54 51/63/48 50/4/47
f 68/71/53 7/27/13 9/2/15
f 57/30/46 30/51/36 29/28/35
f 56/66/48 6/15/12 5/41/11
f 4/31/10 51/63/48 5/41/11
f 41/58/36 3/21/9 2/1/8
f 1/40/7 30/51/36 2/1/8
f 1/40/3 35/54/3 28/50/3
f 2/1/1 30/51/1 56/66/1
f 5/41/1 51/63/1 68/71/1
f 2/1/1 56/66/1 5/41/1
f 59/67/1 41/58/1 2/1/1
f 62/68/1 71/72/1 21/3/1
f 21/3/1 59/67/1 2/1/1
f 2/1/1 5/41/1 9/2/1
f 5/41/1 68/71/1 9/2/1
f 9/2/1 62/68/1 21/3/1
f 50/4/2 52/64/2 27/5/2
f 8/7/2 16/45/2 65/8/2
f 58/10/3 44/60/3 47/11/3
f 55/13/2 38/57/2 11/14/2
f 48/62/4 43/59/4 15/44/4
f 15/44/4 22/46/4 66/70/4
f 18/16/4 25/48/4 54/65/4
f 15/44/4 66/70/4 18/16/4
f 31/18/4 48/62/4 15/44/4
f 37/56/4 36/55/4 31/18/4
f 18/16/4 54/65/4 12/17/4
f 12/17/4 37/56/4 31/18/4
f 31/18/4 15/44/4 18/16/4
f 40/19/5 46/61/5 33/20/5
f 61/22/6 64/69/6 24/23/6
f 67/25/6 26/49/6 17/26/6
f 29/28/5 34/53/5 39/29/5
f 4/31/5 10/42/5 53/32/5
f 20/34/6 13/43/6 45/35/6
f 70/37/3 23/47/3 14/38/3
f 20/34/26 19/39/25 14/38/20
f 14/38/20 23/47/29 22/46/28
f 17/26/23 16/45/22 8/7/14
f 17/26/23 26/49/32 25/48/31
f 35/54/41 34/53/40 29/28/35
f 36/55/42 35/54/41 32/52/38
f 11/14/17 10/42/16 4/31/10
f 11/14/17 38/57/44 37/56/43
f 47/11/41 46/61/40 40/19/35
f 48/62/42 47/11/41 44/60/29
f 53/32/45 52/64/44 50/4/47
f 54/65/43 53/32/45 10/42/16
f 55/13/47 57/30/46 39/29/45
f 37/56/43 39/29/45 34/53/40
f 58/10/49 60/36/51 45/35/30
f 43/59/28 45/35/30 13/43/19
f 65/8/33 64/69/32 61/22/52
f 66/70/31 65/8/33 16/45/22
f 67/25/52 69/6/54 27/5/33
f 52/64/44 54/65/43 25/48/31
f 70/37/49 72/24/51 24/23/30
f 64/69/32 66/70/31 22/46/28
f 33/20/39 32/52/38 1/40/7
f 33/20/39 46/61/40 48/62/42
f 8/7/14 63/9/54 62/68/53
f 72/24/51 71/72/50 62/68/53
f 20/34/26 60/36/51 59/67/50
f 59/67/50 58/10/49 42/12/34
f 71/72/50 70/37/49 19/39/25
f 69/6/54 68/71/53 51/63/48
f 68/71/53 67/25/52 7/27/13
f 57/30/46 56/66/48 30/51/36
f 56/66/48 55/13/47 6/15/12
f 4/31/10 49/33/46 51/63/48
f 41/58/36 40/19/35 3/21/9
f 1/40/7 28/50/34 30/51/36
f 1/40/3 32/52/3 35/54/3
